<?xml version="1.0" encoding="utf-8"?>
<!-- Generator: Adobe Illustrator 26.4.1, SVG Export Plug-In . SVG Version: 6.00 Build 0)  -->
<svg version="1.1" baseProfile="tiny" id="Layer_1" xmlns="http://www.w3.org/2000/svg" xmlns:xlink="http://www.w3.org/1999/xlink"
	 x="0px" y="0px" viewBox="0 0 2678.5 573" overflow="visible" xml:space="preserve">
<g>
	<g>
		<g>
			<path fill="#E50B12" d="M2532.7,27.1c0-5.2,1.4-9.2,4.1-12c2.8-2.8,6.7-4.3,11.7-4.3c4.7,0,8.6,1.5,11.5,4.4
				c3,3,4.5,6.9,4.5,11.8c0,5.2-1.4,9.2-4.1,12.1c-2.8,2.9-6.7,4.4-11.9,4.4c-4.7,0-8.5-1.5-11.5-4.6
				C2534.2,35.8,2532.7,31.9,2532.7,27.1z"/>
		</g>
		<path fill="#E50B12" d="M2645.3,111.5c0-16.7-5.1-30.2-15.1-40c-10-9.8-24.3-14.7-42.4-14.7c-18.2,0-32.5,5.3-42.5,15.9
			c-10,10.5-15,25.5-15,44.4c0,13.6,2.8,26.1,8.4,37.3c2.7,5.4,6.8,5,9,4.3l10.6-3.6c2.5-0.9,4.2-2.2,4.9-3.9
			c0.7-1.7,0.6-3.6-0.4-5.8c-3.9-8.1-5.8-16.7-5.8-25.4c0-7.7,1.8-14,5.3-18.6c3.1-4.1,7.3-6.8,12.6-8.2v62.8c0,4.7,2.6,7.4,7.2,7.4
			h9.8c16,0,29.1-4.6,38.7-13.7C2640.4,140.5,2645.3,127.7,2645.3,111.5z M2597.3,130.7V91.9c14.4,1.6,21.4,8.3,21.4,20.2
			c0,6.2-1.8,10.7-5.6,13.8C2609.4,129,2604.1,130.6,2597.3,130.7z"/>
		<path fill="#E50B12" d="M2645.3,228.4c0-15.7-2.7-29.8-8-42c-1.9-4.1-5.1-5.6-9-4.2l-12.4,4c-2.4,0.7-4,1.9-4.8,3.5
			c-0.8,1.6-0.7,3.6,0.2,5.7c3.6,9.8,5.5,19.3,5.5,28.2c0,12.6-4.3,18.8-13.2,18.8h-2c-0.2-8.3-0.5-15.5-1.1-21.3
			c-0.6-6.3-1.7-12.6-3.1-18.8c-1.5-6.3-3.6-11.5-6.3-15.2c-2.7-3.8-6.4-7-10.9-9.3c-4.5-2.3-9.9-3.5-16.1-3.5
			c-10.7,0-18.9,3.3-24.6,9.9c-5.6,6.5-8.5,15.2-8.5,25.9c0,14.9,4.1,26.3,12.3,34l-4.8,0.7c-3.8,0.7-5.9,3.3-5.9,7.4v18.2
			c0,4.6,2.7,7.2,7.4,7.2h65.3C2631.9,277.7,2645.3,261.1,2645.3,228.4z M2555.8,222.2c0-4.2,1-7.5,3-9.8c1.9-2.3,4.4-3.4,7.6-3.4
			c5.2,0,8.7,2.5,10.6,7.6c2,5.4,3.2,14,3.5,25.8h-6.5c-5.6,0-9.9-1.6-13.2-5C2557.5,234.1,2555.8,229,2555.8,222.2z"/>
		<path fill="#E50B12" d="M2644.1,356.9c0-7.6-2.1-14.3-6.3-20c-2.8-3.9-6-7-9.5-9.5l8.1-1c4.1-0.5,6.4-3.2,6.4-7.4v-19.4
			c0-4.7-2.6-7.4-7.2-7.4h-95.5c-4.7,0-7.4,2.7-7.4,7.4v21.6c0,4.6,2.7,7.2,7.4,7.2h45.7c6.9,0,12.6,2,17,5.9
			c4.4,3.9,6.6,9,6.6,15.5c0,1.1-0.1,2.5-0.2,3.9c-0.1,1.6-0.2,2.7-0.2,3.5c0,4.2,2.3,6.6,6.2,6.6h22
			C2641.7,364,2644.1,361.4,2644.1,356.9z"/>
		<path fill="#E50B12" d="M2645.3,523.4c0-13.3-3.8-23.4-11.4-30.2h37.3c4.6,0,7.2-2.7,7.2-7.4v-21.6c0-4.6-2.6-7.2-7.2-7.2h-131.1
			c-4.7,0-7.4,2.6-7.4,7.2v21.6c0,4.7,2.6,7.4,7.2,7.4h55.1c5.9,0,10.7,1.5,14.3,4.4c3.5,2.9,5.1,7.1,5.1,13c0,5.1-1.3,8.8-4,10.9
			c-2.8,2.2-7.2,3.3-13,3.3h-57.3c-4.7,0-7.4,2.6-7.4,7.2v21.6c0,4.7,2.7,7.4,7.4,7.4h63.3C2631.3,561.1,2645.3,548.4,2645.3,523.4z
			"/>
		<path fill="#E50B12" d="M2643.2,439.2v-11.5h19.1c4.2,0,6.6-2.7,6.6-7.4v-20c0-4.7-2.4-7.4-6.6-7.4h-19.1v-10.4
			c0-4.7-2.7-7.4-7.4-7.4h-16.3c-4.6,0-7.2,2.7-7.2,7.4v10h-45.6l0,0H2539c-4.2,0-6.6,2.7-6.6,7.4v20.8c0,4.7,2.4,7.4,6.6,7.4h37.2
			v0h36v11.1c0,4.6,2.6,7.2,7.2,7.2h16.3C2640.5,446.5,2643.2,443.8,2643.2,439.2z"/>
	</g>
	<path fill="#E50B12" d="M1926.8,536.1c0,18.9-9.3,28.1-28.1,28.1h-109.2c-16.3,0-27.4-5.7-33.8-17.3l-138.2-251.3v240.2
		c0,18.9-9.3,28.1-28.1,28.1h-108.5c-18.9,0-28.1-9.3-28.1-28.1V36.9c0-18.9,9.3-28.1,28.1-28.1h109.2c16.3,0,27.4,5.7,33.8,17.3
		l138.2,251.3V37.2c0-18.9,9.3-28.1,28.1-28.1h108.5c18.9,0,28.1,9.3,28.1,28.1V536.1z"/>
	<path fill="#E50B12" d="M396.6,501c-20.9,26.6-47.3,45.4-79,56c-31.8,10.8-67.7,16-107.9,16c-79,0-143.1-13.2-192.4-39.3
		c-15.8-7.7-20.7-19.6-15-35.4l27.4-73.1c7.2-18.3,19.4-23.8,36.2-16.5c38.2,15.8,75.4,23.5,111.6,23.5c52.9,0,79.3-11.1,79.3-33.1
		c0-9.3-5.9-17.6-18.1-24.3c-12.1-6.7-32.3-15-60.4-24.3c-20.4-6.7-37.4-12.9-51.1-18.3c-13.7-5.4-28.7-13.4-45.4-24
		c-16.8-10.6-30.2-21.9-40-34.1c-9.8-12.1-18.1-27.9-24.8-47S6.4,186.4,6.4,162.4C6.4,54.2,77.9,0,220.7,0
		c69.2,0,125.5,12.1,169.7,36.2c15.8,8.3,20.7,20.1,15,35.4l-26.6,69.2c-6.7,16.8-18.9,22.2-36.2,16.5
		c-33.1-11.1-67.4-16.5-103.5-16.5c-19.9,0-35.1,1.8-45.4,5.4c-10.6,3.6-15.8,11.4-15.8,22.7c0,9.3,5.9,17.8,17.6,25
		c11.9,7.2,31.8,16.3,60.2,26.6l34.6,12.9c6.2,2.3,16.5,6.5,30.7,12.7c14.2,5.9,24.3,11.1,30.2,15.2c5.9,4.1,14.2,10.1,24.8,17.3
		c10.6,7.2,18.1,14.7,22.7,21.9c4.6,7.2,9.8,16,15.2,25.8c5.4,9.8,9.3,21.2,11.4,33.3c2.1,12.1,3.1,25.8,3.1,40.5
		C428.1,440.5,417.5,474.1,396.6,501z"/>
	<path fill="#E50B12" d="M1410.8,530.7L1243.2,33.8c-5.7-16.8-17-25-33.8-25h-38h-93h-35.4c-16.8,0-27.9,8.3-33.8,25L841.7,530.7
		c-3.6,10.1-3.4,18.1,0.8,24.3c4.1,6.2,11.1,9.3,20.4,9.3h116.7c18.3,0,30-8.5,34.6-25.8l4.9-17h78c8.3,0,12.1-4.1,12.1-12.4V409
		c0-8.3-4.1-12.4-12.1-12.4h-42.3l70.5-227.8l71.8,227.8h-41.6c-8.3,0-12.1,4.1-12.1,12.4V509c0,8.3,4.1,12.4,12.1,12.4h78l4.9,17
		c4.6,17.3,16.3,25.8,34.6,25.8h116.7c9.3,0,16.3-3.1,20.4-9.3C1414.4,548.7,1414.7,540.7,1410.8,530.7z"/>
	<path fill="#E50B12" d="M879.2,131.2V36.9c0-18.9-9.3-28.1-28.1-28.1H479c-18.9,0-28.1,9.3-28.1,28.1v94.3
		c0,18.9,9.3,28.1,28.1,28.1h100.5v376.8c0,18.9,9.3,28.1,28.1,28.1h114.7c18.9,0,28.1-9.3,28.1-28.1V159.3h100.5
		C869.9,159.3,879.2,150,879.2,131.2z"/>
	<path fill="#E50B12" d="M2031.2,564.5c-18.9,0-28.1-9.3-28.1-28.1V36.9c0-18.9,9.3-28.1,28.1-28.1h175.1
		c92.2,0,160.6,22.2,205.3,66.6c44.7,44.4,67.1,114.9,67.1,211.2s-22.5,166.6-67.1,211.2c-44.7,44.7-113.1,66.6-205.3,66.6H2031.2z
		 M2174,156.2v260.6h24.3c38.2,0,65.6-9.3,82.4-27.9c16.8-18.6,25-52.7,25-102.5s-8.3-83.9-25-102.5c-16.8-18.6-44.2-27.9-82.4-27.9
		H2174V156.2z"/>
</g>
</svg>
